<?xml version="1.0" encoding="iso-8859-1"?>
<!-- Generator: Adobe Illustrator 19.0.0, SVG Export Plug-In . SVG Version: 6.00 Build 0)  -->
<svg version="1.1" id="Layer_1" xmlns="http://www.w3.org/2000/svg" xmlns:xlink="http://www.w3.org/1999/xlink" x="0px" y="0px"
	 viewBox="0 0 474.9 474.9" style="enable-background:new 0 0 474.9 474.9;" xml:space="preserve">
<g transform="translate(0 -540.36)">
	<g>
		<g>
			<rect x="232.3" y="855.408" width="10.1" height="19.9"/>
			<rect x="232.3" y="675.408" width="10.1" height="19.9"/>
			<rect x="232.3" y="705.408" width="10.1" height="19.9"/>
			<rect x="232.3" y="735.408" width="10.1" height="19.9"/>
			<rect x="232.3" y="765.408" width="10.1" height="19.9"/>
			<rect x="232.3" y="795.408" width="10.1" height="19.9"/>
			<rect x="232.3" y="825.408" width="10.1" height="19.9"/>
			<path d="M242.5,650.31h-10.1H0v4.9v250.1h232.4h10.1h232.4v-255H242.5z M154.9,895.21H10v-234.8h144.9V895.21z M310.1,895.21
				h-67.7v-9.8h-10.1v9.8H165v-234.8h67.3v4.9h10.1v-4.9h67.7V895.21z M464.8,895.21H319.9v-234.8h144.9V895.21z"/>
		</g>
	</g>
</g>
<g>
</g>
<g>
</g>
<g>
</g>
<g>
</g>
<g>
</g>
<g>
</g>
<g>
</g>
<g>
</g>
<g>
</g>
<g>
</g>
<g>
</g>
<g>
</g>
<g>
</g>
<g>
</g>
<g>
</g>
</svg>
