<?xml version="1.0" encoding="iso-8859-1"?>
<!-- Generator: Adobe Illustrator 19.0.0, SVG Export Plug-In . SVG Version: 6.00 Build 0)  -->
<svg version="1.1" id="Layer_1" xmlns="http://www.w3.org/2000/svg" xmlns:xlink="http://www.w3.org/1999/xlink" x="0px" y="0px"
	 viewBox="0 0 512 512" style="enable-background:new 0 0 512 512;" xml:space="preserve">
<g>
	<rect x="16.001" y="176.004" style="fill:#F9B233;" width="32" height="159.997"/>
	<rect x="464.003" y="176.004" style="fill:#F9B233;" width="32" height="159.997"/>
</g>
<path style="fill:#1D1D1B;" d="M503.837,328.163v-160h-47.674v16.001H55.838v-16.001H8.164v160H0v15.674h512v-15.674
	L503.837,328.163L503.837,328.163z M488.164,183.837v144.326h-16.327V183.837H488.164z M116.001,263.083l16.916,16.916L116,296.916
	L99.084,280L116.001,263.083z M88,268.917L71.084,252L88,235.083L104.916,252L88,268.917z M127.084,252L144,235.083L160.916,252
	L144,268.916L127.084,252z M172,263.083L188.917,280l-16.916,16.916l-16.917-16.917L172,263.083z M183.083,252l16.916-16.916
	l16.917,16.917L200,268.917L183.083,252z M228.001,263.083L244.918,280l-16.916,16.917L211.085,280L228.001,263.083z M239.083,252
	L256,235.083L272.917,252L256,268.917L239.083,252z M284,263.083l16.916,16.916l-16.917,16.917l-16.916-16.917L284,263.083z
	 M295.084,252l16.917-16.917l16.916,16.916L312,268.916L295.084,252z M340,263.083l16.917,16.916L340,296.916L323.084,280
	L340,263.083z M351.084,252L368,235.083L384.916,252L368,268.916L351.084,252z M395.999,263.083L412.916,280L396,296.916
	l-16.917-16.917L395.999,263.083z M407.083,252l16.916-16.916L440.915,252l-16.916,16.917L407.083,252z M451.999,263.083
	l4.163,4.163v25.507l-4.163,4.163L435.083,280L451.999,263.083z M456.163,236.753L452,240.916L435.084,224l21.08-21.08v33.833
	H456.163z M437.079,199.837l-13.08,13.08l-13.08-13.08H437.079z M412.916,224l-16.917,16.916L379.083,224l16.916-16.916L412.916,224
	z M381.08,199.837L368,212.917l-13.08-13.08H381.08z M356.916,224l-16.917,16.916L323.083,224l16.916-16.916L356.916,224z
	 M325.08,199.837L312,212.917l-13.08-13.08H325.08z M300.917,224l-16.917,16.917l-16.917-16.916l16.917-16.917L300.917,224z
	 M269.08,199.837L256,212.917l-13.08-13.08H269.08z M244.917,224L228,240.916l-16.917-16.917l16.916-16.916L244.917,224z
	 M213.079,199.837l-13.08,13.08l-13.079-13.08H213.079z M188.917,224l-16.916,16.916L155.085,224l16.916-16.916L188.917,224z
	 M157.08,199.837L144,212.917l-13.08-13.08H157.08z M132.917,224l-16.916,16.916L99.085,224l16.916-16.916L132.917,224z
	 M101.08,199.837L88,212.917l-13.08-13.08H101.08z M55.838,202.92L76.918,224l-16.916,16.916l-4.163-4.163V202.92H55.838z
	 M55.838,267.246l4.163-4.163L76.917,280l-16.916,16.916l-4.163-4.163V267.246z M40.164,328.163H23.838V183.837h16.327V328.163z
	 M55.838,328.163v-4.917l4.163-4.163l9.08,9.08H55.838z M88,324.917l-16.916-16.917L88,291.082l16.916,16.916L88,324.917z
	 M106.92,328.163l9.08-9.08l9.079,9.08H106.92z M144,324.917l-16.916-16.917l16.917-16.917l16.916,16.916L144,324.917z
	 M162.919,328.163l9.08-9.08l9.08,9.08H162.919z M200,324.917l-16.917-16.917L200,291.083L216.917,308L200,324.917z M218.92,328.163
	l9.079-9.079l9.079,9.079H218.92z M256,324.917L239.084,308L256,291.084L272.917,308L256,324.917z M274.92,328.163l9.079-9.079
	l9.079,9.079H274.92z M312,324.917L295.083,308L312,291.083l16.917,16.916L312,324.917z M330.92,328.163l9.08-9.08l9.08,9.08H330.92
	z M368.001,324.917l-16.917-16.917L368,291.083L384.917,308L368.001,324.917z M386.92,328.163l9.079-9.08l9.08,9.08H386.92z
	 M424,324.917l-16.917-16.917L424,291.083L440.916,308L424,324.917z M452,319.083l4.163,4.163v4.917H442.92L452,319.083z"/>
<g>
</g>
<g>
</g>
<g>
</g>
<g>
</g>
<g>
</g>
<g>
</g>
<g>
</g>
<g>
</g>
<g>
</g>
<g>
</g>
<g>
</g>
<g>
</g>
<g>
</g>
<g>
</g>
<g>
</g>
</svg>
