<?xml version="1.0" encoding="utf-8"?>
<!-- Generator: Adobe Illustrator 24.1.1, SVG Export Plug-In . SVG Version: 6.00 Build 0)  -->
<svg version="1.1" id="Layer_1" xmlns="http://www.w3.org/2000/svg" xmlns:xlink="http://www.w3.org/1999/xlink" x="0px" y="0px"
	 viewBox="0 0 512 512" style="enable-background:new 0 0 512 512;" xml:space="preserve">
<style type="text/css">
	.st0{fill:#231F20;}
</style>
<g>
	<path class="st0" d="M256,227.6c62.8,0,113.8-50.9,113.8-113.8S318.8,0,256,0S142.2,50.9,142.2,113.8S193.2,227.6,256,227.6z
		 M256,56.9c31.4,0,56.9,25.5,56.9,56.9s-25.5,56.9-56.9,56.9s-56.9-25.5-56.9-56.9S224.6,56.9,256,56.9z"/>
	<path class="st0" d="M256,284.4c-110,0-199.1,89.1-199.1,199.1c0,15.7,12.7,28.4,28.4,28.4s28.4-12.7,28.4-28.4
		c0-78.5,63.7-142.2,142.2-142.2S398.2,405,398.2,483.6c0,15.7,12.7,28.4,28.4,28.4c15.7,0,28.4-12.7,28.4-28.4
		C455.1,373.6,366,284.4,256,284.4z"/>
</g>
</svg>
